# xmcd
#
# Track frame offsets:
#	150
#	20170
#	39273
#	57710
#	73835
#	89842
#	108271
#	125365
#	143697
#	163106
#	178290
#	195329
#	212956
#	229406
#	248034
#	265526
#	282376
#	298271
#	317604
#
# Disc length: 4428
#
# Revision: 1
# Processed by: cddbd v1.5.1PL0 Copyright (c) Steve Scherf et al.
# Submitted via: ExactAudioCopy v0.95a5
# Normalized: r0:TDELIM( - )
#
DISCID=2c114a13
DTITLE=Various Artist - Ocean Of Love Vol.2
DYEAR=2001
DGENRE=Blues
TTITLE0=A1 - Everytime
TTITLE1=Babyface - Reason For Breathing
TTITLE2=Changing Faces - That Oter Woman
TTITLE3=Bbmak - Back Here
TTITLE4=Vanessa Paradis - Pourtant
TTITLE5=Damag - Still Be Oving You
TTITLE6=Caprice - Once Around The Sun
TTITLE7=Dido - Here With Me
TTITLE8=Doves - Man Who Told Everything
TTITLE9=Honeyz - Love Of A Life Time
TTITLE10=Joe - Stutter
TTITLE11=Lene Marlin - Unforgivable and Sinner
TTITLE12=Mis-Teeq - Why
TTITLE13=Monica - Angel Of Mine
TTITLE14=Racoon - Blue Days
TTITLE15=Sugababes - New Year
TTITLE16=Usher - Nice and Slow
TTITLE17=Wyclef Jean Ft. Mary J Blige - 911
TTITLE18=2Ge+Ger - Every Minute, Every Hou
EXTD=
EXTT0=
EXTT1=
EXTT2=
EXTT3=
EXTT4=
EXTT5=
EXTT6=
EXTT7=
EXTT8=
EXTT9=
EXTT10=
EXTT11=
EXTT12=
EXTT13=
EXTT14=
EXTT15=
EXTT16=
EXTT17=
EXTT18=
PLAYORDER=
